<svg xmlns="http://www.w3.org/2000/svg" viewBox="0 0 512 512" style="height: 512px; width: 512px;"><defs><filter id="shadow-1" height="300%" width="300%" x="-100%" y="-100%"><feFlood flood-color="rgba(8, 8, 8, 1)" result="flood"></feFlood><feComposite in="flood" in2="SourceGraphic" operator="atop" result="composite"></feComposite><feGaussianBlur in="composite" stdDeviation="15" result="blur"></feGaussianBlur><feOffset dx="0" dy="0" result="offset"></feOffset><feComposite in="SourceGraphic" in2="offset" operator="over"></feComposite></filter></defs><g class="" transform="translate(0,0)" style=""><path d="M384 64l.387 256H368l-96-128-16 128-96-128-16 128-96-128-16 128v160h448V64h-32v256h-32V64h-32zM64 352h48v32H64v-32zm80 0h48v32h-48v-32zm80 0h48v32h-48v-32zm80 0h48v32h-48v-32zM64 416h48v32H64v-32zm80 0h48v32h-48v-32zm80 0h48v32h-48v-32zm80 0h48v32h-48v-32z" fill="#ffffff" fill-opacity="1" filter="url(#shadow-1)"></path></g></svg>